<svg xmlns="http://www.w3.org/2000/svg" viewBox="0 0 24 24"><path d="M21.81 10.25c-.06-.04-.56-.43-1.64-.43-.28 0-.56.03-.84.08-.21-1.4-1.38-2.11-1.43-2.14l-.29-.17-.18.27c-.24.36-.43.77-.51 1.19-.2.8-.08 1.56.34 2.19-.5.28-1.3.35-1.46.35H2.84c-.34 0-.62.28-.62.63 0 1.17.18 2.34.56 3.39.42 1.18 1.05 2.05 1.86 2.57.94.6 2.47.94 4.18.94.78 0 1.59-.08 2.39-.24.96-.19 1.88-.52 2.72-1 .72-.4 1.36-.92 1.93-1.52 1.11-1.23 1.81-2.45 2.3-3.49h.2c1.24 0 2.01-.5 2.44-.93.28-.28.5-.6.63-.96l.08-.24-.7-.43zM4.5 10.83h1.83c.09 0 .15-.07.15-.15V9.01c0-.09-.07-.15-.15-.15H4.5c-.09 0-.15.07-.15.15v1.67c0 .09.07.15.15.15zm2.62 0h1.83c.09 0 .15-.07.15-.15V9.01c0-.09-.07-.15-.15-.15H7.12c-.09 0-.15.07-.15.15v1.67c0 .09.07.15.15.15zm2.64 0h1.83c.09 0 .15-.07.15-.15V9.01c0-.09-.07-.15-.15-.15H9.76c-.09 0-.15.07-.15.15v1.67c0 .09.07.15.15.15zm2.63 0h1.83c.09 0 .15-.07.15-.15V9.01c0-.09-.07-.15-.15-.15h-1.83c-.09 0-.15.07-.15.15v1.67c0 .09.07.15.15.15zM7.12 8.21h1.83c.09 0 .15-.07.15-.15V6.39c0-.09-.07-.15-.15-.15H7.12c-.09 0-.15.07-.15.15v1.67c0 .09.07.15.15.15zm2.64 0h1.83c.09 0 .15-.07.15-.15V6.39c0-.09-.07-.15-.15-.15H9.76c-.09 0-.15.07-.15.15v1.67c0 .09.07.15.15.15zm2.63 0h1.83c.09 0 .15-.07.15-.15V6.39c0-.09-.07-.15-.15-.15h-1.83c-.09 0-.15.07-.15.15v1.67c0 .09.07.15.15.15z"/></svg>
